ffmpeg started on 2016-11-27 at 17:12:59
Report written to "Output/NVENCh264/results/ffmpeg/sintelllhp500k.log"
Command line:
Tools/ffmpeg/ffmpeg -benchmark -y -i Input/y4m/sintel.y4m -c:v h264_nvenc -preset llhp -b:v 500k -an Output/NVENCh264/encoded/sintelllhp500k.mkv
ffmpeg version N-82227-gdb23fde Copyright (c) 2000-2016 the FFmpeg developers
  built with gcc 5.4.0 (Ubuntu 5.4.0-6ubuntu1~16.04.2) 20160609
  configuration: --prefix=/home/jaroslav/ffmpeg_build --pkg-config-flags=--static --extra-cflags=-I/home/jaroslav/ffmpeg_build/include --extra-ldflags=-L/home/jaroslav/ffmpeg_build/lib --bindir=/home/jaroslav/bin --enable-gpl --enable-libass --enable-libfdk-aac --enable-libfreetype --enable-libmp3lame --enable-libopus --enable-libtheora --enable-libvorbis --enable-libvpx --enable-libx264 --enable-libx265 --enable-nvenc --enable-libmfx --enable-libxvid --enable-libgsm --enable-libopencore-amrnb --enable-version3 --enable-nonfree
  libavutil      55. 35.100 / 55. 35.100
  libavcodec     57. 66.101 / 57. 66.101
  libavformat    57. 57.100 / 57. 57.100
  libavdevice    57.  2.100 / 57.  2.100
  libavfilter     6. 66.100 /  6. 66.100
  libswscale      4.  3.100 /  4.  3.100
  libswresample   2.  4.100 /  2.  4.100
  libpostproc    54.  2.100 / 54.  2.100
Input #0, yuv4mpegpipe, from 'Input/y4m/sintel.y4m':
  Duration: 00:00:20.83, start: 0.000000, bitrate: 2057307 kb/s
    Stream #0:0: Video: rawvideo (I420 / 0x30323449), yuv420p(progressive), 4096x1744, SAR 1:1 DAR 256:109, 24 fps, 24 tbr, 24 tbn, 24 tbc
[h264_nvenc @ 0x31891c0] The variable bitrate rate-control requires the 'qmin' and/or 'qmax' option set.
Output #0, matroska, to 'Output/NVENCh264/encoded/sintelllhp500k.mkv':
  Metadata:
    encoder         : Lavf57.57.100
    Stream #0:0: Video: h264 (h264_nvenc) (Main) (H264 / 0x34363248), yuv420p, 4096x1744 [SAR 1:1 DAR 256:109], q=-1--1, 500 kb/s, 24 fps, 1k tbn, 24 tbc
    Metadata:
      encoder         : Lavc57.66.101 h264_nvenc
    Side data:
      cpb: bitrate max/min/avg: 0/0/500000 buffer size: 1000000 vbv_delay: -1
Stream mapping:
  Stream #0:0 -> #0:0 (rawvideo (native) -> h264 (h264_nvenc))
Press [q] to stop, [?] for help
frame=   18 fps=0.0 q=0.0 size=       0kB time=00:00:00.00 bitrate=N/A speed=   0x    frame=   39 fps= 38 q=49.0 size=       1kB time=00:00:00.33 bitrate=  17.8kbits/s speed=0.322x    frame=   60 fps= 39 q=49.0 size=       1kB time=00:00:01.20 bitrate=   4.9kbits/s speed=0.782x    frame=   81 fps= 39 q=49.0 size=       1kB time=00:00:02.08 bitrate=   2.9kbits/s speed=1.01x    frame=  102 fps= 40 q=49.0 size=       1kB time=00:00:02.95 bitrate=   2.0kbits/s speed=1.15x    frame=  123 fps= 40 q=49.0 size=       1kB time=00:00:03.83 bitrate=   1.6kbits/s speed=1.25x    frame=  144 fps= 40 q=49.0 size=       1kB time=00:00:04.70 bitrate=   1.3kbits/s speed=1.31x    frame=  165 fps= 40 q=49.0 size=    1277kB time=00:00:05.58 bitrate=1873.6kbits/s speed=1.36x    frame=  166 fps= 30 q=49.0 size=    1277kB time=00:00:05.62 bitrate=1859.6kbits/s speed=1.02x    frame=  167 fps= 19 q=49.0 size=    1277kB time=00:00:05.66 bitrate=1845.8kbits/s speed=0.634x    frame=  168 fps= 13 q=49.0 size=    1277kB time=00:00:05.70 bitrate=1832.5kbits/s speed=0.453x    frame=  169 fps= 12 q=49.0 size=    1277kB time=00:00:05.75 bitrate=1819.2kbits/s speed=0.421x    frame=  190 fps= 13 q=49.0 size=    1277kB time=00:00:06.62 bitrate=1578.9kbits/s speed=0.467x    frame=  211 fps= 14 q=49.0 size=    1277kB time=00:00:07.50 bitrate=1394.7kbits/s speed=0.511x    frame=  232 fps= 15 q=49.0 size=    1277kB time=00:00:08.37 bitrate=1249.0kbits/s speed=0.551x    frame=  253 fps= 16 q=49.0 size=    1277kB time=00:00:09.25 bitrate=1130.9kbits/s speed=0.589x    frame=  274 fps= 17 q=49.0 size=    2537kB time=00:00:10.12 bitrate=2052.2kbits/s speed=0.624x    frame=  295 fps= 18 q=49.0 size=    2537kB time=00:00:11.00 bitrate=1889.0kbits/s speed=0.657x    frame=  316 fps= 18 q=49.0 size=    2750kB time=00:00:11.87 bitrate=1896.9kbits/s speed=0.688x    frame=  337 fps= 19 q=49.0 size=    2750kB time=00:00:12.75 bitrate=1766.7kbits/s speed=0.718x    frame=  358 fps= 20 q=49.0 size=    2750kB time=00:00:13.62 bitrate=1653.3kbits/s speed=0.746x    frame=  379 fps= 20 q=49.0 size=    2750kB time=00:00:14.50 bitrate=1553.5kbits/s speed=0.772x    frame=  400 fps= 21 q=49.0 size=    2750kB time=00:00:15.37 bitrate=1465.1kbits/s speed=0.797x    frame=  421 fps= 21 q=49.0 size=    3364kB time=00:00:16.25 bitrate=1695.9kbits/s speed=0.82x    frame=  442 fps= 22 q=49.0 size=    3364kB time=00:00:17.12 bitrate=1609.2kbits/s speed=0.843x    frame=  463 fps= 22 q=49.0 size=    3554kB time=00:00:18.00 bitrate=1617.4kbits/s speed=0.864x    frame=  484 fps= 23 q=49.0 size=    3554kB time=00:00:18.87 bitrate=1542.4kbits/s speed=0.884x    frame=  495 fps= 23 q=49.0 size=    3554kB time=00:00:19.33 bitrate=1505.9kbits/s speed=0.884x    frame=  500 fps= 23 q=49.0 Lsize=    3992kB time=00:00:20.79 bitrate=1572.8kbits/s speed=0.944x    
video:3988kB audio:0kB subtitle:0kB other streams:0kB global headers:0kB muxing overhead: 0.109247%
bench: utime=0.960s
bench: maxrss=1189960kB
